<svg xmlns="http://www.w3.org/2000/svg" width="198.43" height="209.78" viewBox="0 0 198.43 209.78">
  <defs>
    <style>
      .a {
        fill: #fff;
      }
    </style>
  </defs>
  <title>Ruso_logo</title>
  <g>
    <path class="a" d="M150.88,90.39c47.2-15.78,67.76,69.93,21.64,76.23-18.76,2.56-39,2.76-48.84-19.9-10.9-25.19,2.31-48,27.2-56.33h0Zm34,42.48c0.59-18.31-4.26-34.07-25.31-30.74-17.07,2.7-30.74,16.85-24.73,34.41C142.19,158.05,183.94,162.15,184.87,132.88Z" transform="translate(0 0)"/>
    <path class="a" d="M87.07,44.89c-2-7-5.29-13.74-5.38-21.18-0.14-10.58,10.75-4.27,13,1.12,6,14.67,7,36,23,44.48,9.43,5,24.6-1.43,29.29-9.73,7.53-13.33-6.38-35.41-11.39-48.34C132.92,4.63,138.79-.9,145.72.12c7.85,1.15,9.83,14.63,11.81,20.71C162.47,35.91,167,58.11,155,71.14c-8.79,9.52-24.7,15.3-37.52,12.42-17.9-4-25.34-23.27-30.37-38.66C85.06,37.9,88.25,48.51,87.07,44.89Z" transform="translate(0 0)"/>
    <path class="a" d="M58.51,137.64c-6.65,3.07-15.1,6.19-18.17-1-3.87-9,14.78-10.38,11-16-4.72-7-22.88.7-22.92,16.93-0.06,24.47,28.1,14.7,39,9.68,8.38-3.87,20.31-4,28.53,5,7.95,8.72,4.51,21.63-6.39,29.9-9.16,7-36.69,10.65-40.94,14.14C39.77,203.63,51.28,212.49,61,209c30.88-11.15,49-19.67,51.29-39.69,1.65-14.37-3.61-32.45-21.66-36C79.42,131.1,71,131.87,58.51,137.64Z" transform="translate(0 0)"/>
    <path class="a" d="M103.83,121.45c-15.24,5-19.34-18.07-5.68-22.92C111.57,93.77,120.83,114.92,103.83,121.45Z" transform="translate(0 0)"/>
    <path class="a" d="M3.14,59.57c-5.1,11.79-3.4,22.37.91,34,2.3,6.22,5,26.27,11.27,29.57,10.23,5.42,7.45-13.2,5.27-18.76-4.14-10.54-10-21.64-8.3-33.33C15,52.55,33.84,45.94,48.44,50.28c15.43,4.6,21.31,26.57,9.8,35-8.87,6.52-19.94,6.63-29.89,5.17-2.74-.4-5.66,2.2-3.75,5.1,2.51,3.83,10.65,5,14.58,5.36a30.86,30.86,0,0,0,13.42-1.1c7.76-2.36,8.91,3.37,16.15,6.47,2.8,1.2,10.84.79,11.72-2.8,1.31-5.33-8.74-9.52-12.34-11.18,4.08-3.41,5.46-8.28,6.9-13.39C86,40.21,20.6,19.21,3.14,59.57Z" transform="translate(0 0)"/>
  </g>
</svg>
